<?xml version="1.0" encoding="UTF-8" standalone="no"?>
<!-- Created with Inkscape (http://www.inkscape.org/) -->

<svg
   version="1.1"
   id="svg1"
   width="350"
   height="350"
   viewBox="0 0 350 350"
   sodipodi:docname="camel-icon.svg"
   inkscape:version="1.4.1-rc (06eac75fbf, 2025-03-29)"
   xmlns:inkscape="http://www.inkscape.org/namespaces/inkscape"
   xmlns:sodipodi="http://sodipodi.sourceforge.net/DTD/sodipodi-0.dtd"
   xmlns="http://www.w3.org/2000/svg"
   xmlns:svg="http://www.w3.org/2000/svg">
  <defs
     id="defs1" />
  <sodipodi:namedview
     id="namedview1"
     pagecolor="#ffffff"
     bordercolor="#000000"
     borderopacity="0.25"
     inkscape:showpageshadow="2"
     inkscape:pageopacity="0.0"
     inkscape:pagecheckerboard="0"
     inkscape:deskcolor="#d1d1d1"
     inkscape:zoom="2.2942857"
     inkscape:cx="174.78207"
     inkscape:cy="175"
     inkscape:window-width="1854"
     inkscape:window-height="1011"
     inkscape:window-x="0"
     inkscape:window-y="0"
     inkscape:window-maximized="1"
     inkscape:current-layer="g1" />
  <g
     inkscape:groupmode="layer"
     inkscape:label="Image"
     id="g1">
    <path
       style="fill:#000000;stroke-width:0.998974"
       d="m 140.54416,308.02311 c -7.93115,-0.42696 -14.73867,-0.83303 -15.12782,-0.90238 -1.53186,-0.27301 -2.97232,-9.04427 -6.32403,-38.50867 -0.44067,-3.87377 -0.30313,-5.76993 0.41851,-5.76993 0.98455,0 5.58908,13.66248 9.66063,28.6648 l 1.65192,6.08681 45.13881,-0.066 45.13881,-0.066 1.52103,-5.51907 c 0.83658,-3.03548 3.29747,-11.49093 5.46866,-18.78988 2.17118,-7.29893 3.94761,-13.70868 3.94761,-14.24385 0,-0.53518 -2.48583,0.17525 -5.52406,1.57874 -3.8475,1.77732 -7.97562,2.72134 -13.60169,3.11043 -7.3351,0.50729 -8.58178,0.91499 -13.56219,4.43523 -6.97059,4.92693 -13.42982,6.85043 -23.00414,6.85043 -9.60421,0 -16.08663,-1.93919 -22.93747,-6.86165 -4.95834,-3.56264 -6.08833,-3.93018 -13.65075,-4.43995 -18.05191,-1.21686 -33.73816,-13.46801 -40.134722,-31.3457 -1.882526,-5.26145 -2.247044,-9.09366 -2.890253,-30.38547 L 95.996977,177.48626 88.272139,164.72271 C 73.086427,139.63172 73.552912,140.56829 73.100922,134.26326 c -0.425538,-5.93603 0.808637,-10.83383 3.550937,-14.09182 1.264632,-1.50245 1.079992,-1.85968 -1.714949,-3.31803 C 61.308768,109.7425 55.09899,93.940592 59.494259,77.55679 62.591804,66.01038 70.821724,59.998489 81.349782,61.5915 c 5.841502,0.883884 10.033886,4.574682 19.003188,16.729609 l 6.63491,8.991427 11.5969,-11.454699 c 18.379,-18.153643 22.89906,-19.694841 57.76143,-19.694841 34.932,0 39.53148,1.568987 57.78811,19.712849 l 11.54379,11.472493 6.64813,-9.009328 c 8.98258,-12.17292 13.17295,-15.863333 19.0164,-16.74751 14.37167,-2.174591 24.4726,10.646449 23.13563,29.365884 -0.78707,11.020176 -7.14584,20.898966 -16.64139,25.853566 l -3.05078,1.59184 2.2455,3.0646 c 1.87411,2.55771 2.24551,4.34388 2.24551,10.79938 0,8.56765 0.91259,6.61573 -16.31658,34.899 l -6.20695,10.18929 -0.76877,24.43028 c -0.66973,21.28305 -1.04581,25.20591 -2.91932,30.45108 -2.59597,7.2678 -8.05414,15.5034 -13.24781,19.98907 l -3.82461,3.30322 -1.47846,12.93877 c -2.64913,23.18362 -4.77643,35.68209 -6.42237,37.73306 -1.51888,1.89264 -3.15283,1.99275 -37.35808,2.28904 -19.67335,0.17039 -42.25885,-0.0395 -50.19,-0.46647 z m 50.22232,-47.56968 c 2.73488,-1.26095 9.65666,-6.47124 15.38174,-11.5784 18.80859,-16.77856 20.03682,-16.65306 8.43856,0.86227 -4.12857,6.23483 -7.29674,11.5477 -7.04038,11.80638 0.25637,0.25867 3.07488,-0.0735 6.26336,-0.73814 16.1961,-3.37612 29.2259,-15.47864 33.60017,-31.20892 1.51746,-5.45693 1.7094,-9.70444 1.39827,-30.94319 -0.19835,-13.53992 0.0229,-25.40826 0.49164,-26.3741 0.72451,-1.49283 0.35183,-1.75937 -2.48625,-1.7781 -4.24566,-0.028 -10.60577,-2.97235 -13.6673,-6.32705 -3.3948,-3.7199 -5.14484,-11.29767 -3.93309,-17.03041 2.60289,-12.31414 19.54411,-22.03332 34.37748,-19.72235 2.6108,0.40676 4.93807,0.5578 5.17171,0.33566 0.23365,-0.22215 -7.80595,-8.75301 -17.86576,-18.9575 L 232.60608,90.24599 h -13.04387 c -13.9646,0 -12.99854,0.25712 -25.81223,-6.87 -4.34017,-2.414052 -30.46737,-2.414052 -34.80755,0 -12.81368,7.12712 -11.84762,6.87 -25.81222,6.87 h -13.04387 l -18.29055,18.55359 c -10.059816,10.20449 -18.099406,18.72737 -17.865765,18.93974 0.233642,0.21237 2.83604,0.0643 5.783109,-0.32907 15.760946,-2.10369 30.932066,7.21618 34.000106,20.88684 0.99654,4.44042 -1.13235,12.55171 -4.16711,15.87709 -3.06153,3.3547 -9.42164,6.29902 -13.6673,6.32705 -2.83808,0.0188 -3.21077,0.28527 -2.48625,1.7781 0.46876,0.96584 0.68753,12.8589 0.48617,26.42904 -0.38753,26.11754 0.18429,30.83968 4.85259,40.0728 3.36891,6.66312 10.67052,13.75736 17.93237,17.42306 6.46027,3.26108 17.41857,6.41278 18.50063,5.32095 0.26645,-0.26884 -2.90172,-5.59059 -7.04037,-11.82608 -11.55047,-17.40254 -10.12537,-17.56004 8.26993,-0.914 10.30933,9.32899 15.53521,12.62102 22.33816,14.07184 6.17363,1.31662 16.38069,0.20323 22.03442,-2.40351 z m -24.00296,-5.0799 c -1.71514,-0.75308 -4.47431,-3.35769 -6.13149,-5.78804 -3.73695,-5.48043 -9.85246,-11.12755 -14.82193,-13.6867 -2.0758,-1.06898 -4.54029,-2.79842 -5.47664,-3.84318 -2.60804,-2.91002 -4.76181,-8.86176 -4.76181,-13.15883 0,-2.89582 -0.65948,-4.48411 -2.61745,-6.3039 -3.86781,-3.59483 -6.28626,-9.68493 -6.31122,-15.89281 -0.0181,-4.5011 1.03345,-7.84472 6.13392,-19.50411 4.37018,-9.98997 5.78459,-14.19656 4.87613,-14.50211 -2.61918,-0.88093 -8.38946,-6.79769 -9.68828,-9.9342 -3.52801,-8.51986 -0.63099,-16.31655 9.01705,-24.26739 6.45238,-5.31731 7.02615,-6.1389 10.21925,-14.63289 4.31015,-11.46546 7.15515,-15.178983 14.12127,-18.432174 4.75995,-2.222912 6.97238,-2.607483 15.11534,-2.627397 8.66928,-0.0212 10.07255,0.251886 15.38742,2.994508 6.9475,3.58512 8.95689,6.337683 13.76292,18.853143 3.39541,8.84206 3.9724,9.67615 10.14731,14.66903 7.26616,5.87522 9.34147,9.59693 9.34147,16.75234 0,5.92132 -3.53209,12.31758 -8.20372,14.85609 l -3.3769,1.83498 6.28443,14.16721 c 5.27856,11.89964 6.28143,15.05059 6.26572,19.68628 -0.0214,6.2985 -2.41446,12.36067 -6.30809,15.9795 -1.99342,1.85274 -2.62266,3.40778 -2.63929,6.52253 -0.0371,6.9399 -3.0878,12.0916 -9.61416,16.23519 -7.1021,4.5091 -11.51163,8.59249 -15.43753,14.29573 -1.65928,2.41047 -4.49689,4.994 -6.33738,5.76993 -4.21379,1.77651 -14.85773,1.75251 -18.94634,-0.0427 z m 21.11549,-17.49578 c 5.43282,-5.36358 8.37015,-7.40936 13.17813,-9.17824 3.71706,-1.36752 7.16595,-3.45008 8.63909,-5.21658 2.88304,-3.45719 3.19561,-5.32793 0.71165,-4.25926 -0.9572,0.41182 -6.88692,0.94858 -13.17714,1.19281 -10.6449,0.41332 -11.76385,0.27414 -16.16065,-2.01011 l -4.72388,-2.45418 -4.72388,2.45418 c -4.3968,2.28425 -5.51576,2.42343 -16.16065,2.01011 -6.29022,-0.24423 -12.21994,-0.78099 -13.17714,-1.19281 -2.48396,-1.06867 -2.17139,0.80207 0.71165,4.25926 1.4705,1.76334 4.91937,3.84809 8.61586,5.20804 4.87797,1.79463 7.53029,3.67476 12.71411,9.01255 6.26569,6.4518 6.76779,6.75206 11.55603,6.91054 4.92314,0.16295 5.12108,0.0518 11.99682,-6.73631 z m -24.77848,-29.1191 c 2.28697,-0.4468 5.42586,-1.89471 6.97532,-3.21756 2.75298,-2.35034 2.79073,-2.51959 1.65575,-7.42251 -1.64069,-7.08748 -1.59329,-14.19889 0.13935,-20.91092 1.81213,-7.01996 1.80831,-6.68439 0.0763,-6.68439 -0.7785,0 -2.87976,-1.24179 -4.66946,-2.75954 -3.1306,-2.65487 -3.68142,-2.75953 -14.52299,-2.75953 h -11.269 l -0.9135,3.51213 c -3.79983,14.60936 -5.99515,24.33978 -5.99515,26.57266 0,4.99622 4.68204,11.32435 9.94552,13.4421 3.02166,1.21576 12.90048,1.33677 18.57786,0.22756 z m 45.39673,-0.46897 c 4.24445,-1.78943 8.37946,-6.83459 9.1945,-11.21827 0.45624,-2.45386 -0.43775,-7.90689 -2.9975,-18.28372 l -3.64762,-14.78695 -11.13459,0.33162 c -9.99727,0.29775 -11.38852,0.56809 -13.62083,2.64679 -1.36744,1.27335 -3.5341,2.63523 -4.8148,3.02639 -1.82318,0.55685 -2.18679,1.18021 -1.67543,2.87226 2.28442,7.55888 2.84246,16.75018 1.42221,23.42461 l -1.46299,6.87523 2.88982,2.41483 c 1.5894,1.32816 4.51333,2.73441 6.49763,3.12501 6.18661,1.21777 15.95883,1.00173 19.3496,-0.4278 z m -47.06857,-48.27596 c 0,-0.2612 -0.98093,-2.51214 -2.17984,-5.00211 -1.95178,-4.05355 -2.73583,-4.6903 -7.49397,-6.08599 -2.92276,-0.85733 -5.06688,-1.96242 -4.7647,-2.45575 0.30217,-0.49335 2.92256,-1.43285 5.82308,-2.08782 6.94853,-1.56903 9.9465,-0.0206 16.66777,8.60922 2.90936,3.73546 5.82549,6.49387 6.86518,6.49387 1.03969,0 3.95582,-2.75841 6.86518,-6.49387 6.68925,-8.58862 9.4795,-10.02988 16.55032,-8.54876 2.96469,0.62103 5.63776,1.53305 5.94015,2.02672 0.30238,0.49369 -1.84157,1.59906 -4.76433,2.45639 -4.75813,1.39569 -5.54218,2.03244 -7.49396,6.08599 -1.19891,2.48997 -2.17984,4.74091 -2.17984,5.00211 0,0.90368 10.07595,0.47051 14.35711,-0.61721 5.84434,-1.48489 11.26342,-6.14831 12.04796,-10.36795 0.92779,-4.99016 -1.53213,-8.71638 -8.99164,-13.62025 -7.03043,-4.6218 -9.08805,-7.47698 -13.96559,-19.3788 -3.67658,-8.97135 -6.35559,-10.89924 -16.01482,-11.52472 -5.4628,-0.35374 -8.49253,-0.0323 -11.83502,1.25574 -4.85047,1.8691 -5.92289,3.41142 -10.80426,15.53828 -3.03689,7.54457 -5.01373,9.90654 -12.75462,15.23946 -3.13202,2.15774 -6.15282,4.78712 -6.71289,5.84305 -2.69423,5.07962 0.0407,11.51348 6.27964,14.7726 3.66677,1.91546 18.55909,4.21024 18.55909,2.8598 z M 90.350544,142.39421 c 1.005802,-1.12142 3.819932,-2.54485 6.253624,-3.16318 4.330912,-1.10037 4.374002,-1.15115 2.028906,-2.39095 -2.085142,-1.10236 -13.494196,-4.44852 -15.167673,-4.44852 -1.336141,0 -0.473663,4.47333 1.569806,8.14197 2.504554,4.49642 2.844581,4.61544 5.315337,1.86068 z m 177.306666,-1.86068 c 1.19468,-2.1448 2.17213,-4.89003 2.17213,-6.10053 0,-1.95553 -0.36033,-2.12403 -3.23213,-1.51138 -3.50214,0.74712 -13.70562,4.18429 -14.34925,4.83373 -0.21771,0.21966 1.55289,0.89452 3.93468,1.49966 2.38178,0.60515 5.15343,2.01778 6.15923,3.1392 2.47076,2.75476 2.81079,2.63574 5.31534,-1.86068 z M 92.764021,102.65754 C 98.880131,96.238148 103.51784,90.61743 103.07003,90.16706 98.317084,85.38683 82.81445,73.025329 80.942986,72.523376 74.773721,70.868696 69.720468,78.29888 69.108811,89.92407 c -0.317491,6.034249 0.01595,8.071083 2.053397,12.54332 2.752078,6.04087 7.262188,11.86178 9.190643,11.86178 0.710034,0 6.295061,-5.25223 12.41117,-11.67163 z m 183.964209,7.73754 c 5.43111,-6.91914 7.27768,-12.450621 6.85256,-20.527222 -0.62681,-11.908705 -6.01934,-19.499252 -12.18337,-17.149389 -1.39993,0.533683 -7.0351,4.772676 -12.52261,9.419982 l -9.97729,8.449649 2.7356,3.090209 c 7.49772,8.469661 19.78271,20.650861 20.8268,20.650861 0.64916,0 2.5699,-1.77033 4.26831,-3.93409 z M 139.42759,79.770754 c 5.23892,-5.209474 9.22834,-9.771412 8.86538,-10.137641 -1.53056,-1.544352 -12.22077,4.850202 -18.76384,11.22395 -3.7873,3.689285 -6.886,7.085267 -6.886,7.546626 0,0.46136 1.63331,0.838835 3.62958,0.838835 3.24734,0 4.63275,-0.997518 13.15488,-9.47177 z m 12.19539,-0.24899 c 5.39314,-5.346417 9.80571,-10.087794 9.80571,-10.536392 0,-0.448597 -1.89398,-0.815632 -4.20884,-0.815632 -3.99494,0 -4.70251,0.496252 -13.92302,9.764966 -5.3428,5.370731 -9.71418,10.112107 -9.71418,10.536392 0,0.424284 1.85278,0.771426 4.11731,0.771426 3.86857,0 4.7097,-0.587257 13.92302,-9.72076 z m 65.80483,4.898285 4.70752,-4.822476 -2.30444,-2.184425 -2.30444,-2.184425 -6.30379,6.417665 c -5.89877,6.005314 -6.15142,6.446744 -3.93223,6.870246 4.81114,0.918139 5.52299,0.630475 10.13738,-4.096585 z m 12.62148,4.117648 c 0,-0.387655 -1.43172,-2.195299 -3.18159,-4.016986 l -3.1816,-3.312159 -3.28266,3.210367 c -1.80547,1.765702 -3.28267,3.573346 -3.28267,4.016986 0,0.443641 2.90891,0.806619 6.46426,0.806619 3.55534,0 6.46426,-0.317172 6.46426,-0.704827 z m -74.82552,-4.894084 c 7.70086,-4.071821 18.13894,-12.521487 18.13894,-14.683551 0,-0.434678 -1.91038,-0.790322 -4.24529,-0.790322 -4.05386,0 -4.69207,0.452503 -14.15299,10.034659 -5.44923,5.519063 -9.57563,10.034659 -9.16977,10.034659 0.40585,0 4.64895,-2.06795 9.42911,-4.595445 z m 54.4125,-3.40604 c 3.23345,-3.297004 5.68084,-6.170977 5.43863,-6.386604 -0.24221,-0.215628 -1.50703,-0.952907 -2.81069,-1.638396 -2.2086,-1.161311 -2.78534,-0.824847 -8.45326,4.931532 -5.81571,5.906459 -5.99815,6.241804 -4.1525,7.632949 1.06175,0.80029 2.41834,1.455073 3.01463,1.455073 0.5963,0 3.72974,-2.69755 6.96319,-5.994554 z m -7.96775,-4.001896 c 6.19109,-6.312765 6.16388,-5.964904 0.60225,-7.699098 -0.79615,-0.248253 -3.96989,2.097709 -7.19679,5.319724 l -5.77256,5.763819 2.72153,1.21757 c 1.49685,0.669663 2.95931,1.254246 3.24991,1.29907 0.29062,0.04482 3.16866,-2.610663 6.39566,-5.901085 z m -21.84156,-2.045142 5.90475,-6.020795 h -4.41285 c -3.98543,0 -4.92159,0.50695 -9.66526,5.233918 -2.88882,2.878654 -5.2524,5.588012 -5.2524,6.020795 0,0.432783 1.69223,0.786878 3.7605,0.786878 3.2771,0 4.51957,-0.773974 9.66526,-6.020796 z m 11.93402,0 5.90474,-6.020795 h -4.41285 c -3.98542,0 -4.92159,0.50695 -9.66525,5.233918 -2.88883,2.878654 -5.25241,5.588012 -5.25241,6.020795 0,0.432783 1.69224,0.786878 3.76051,0.786878 3.2771,0 4.51957,-0.773974 9.66526,-6.020796 z"
       id="path1" />
    <path
       id="path3"
       style="fill:#000000;stroke-width:1.17006"
       d="m 98.823209,125.25471 a 40.971359,25.062159 0 0 0 -40.970703,25.06255 40.971359,25.062159 0 0 0 40.970703,25.06256 40.971359,25.062159 0 0 0 40.972661,-25.06256 40.971359,25.062159 0 0 0 -40.972661,-25.06255 z m 0,4.48949 c 15.845771,0 29.112971,6.50008 32.433601,15.89105 2.2489,6.36003 -0.0936,12.51199 -6.75,17.73337 -6.93856,5.44277 -21.60159,8.67848 -32.347663,7.13666 -12.89133,-1.8496 -23.063112,-8.04728 -25.769532,-15.7012 -4.64166,-13.1269 10.801914,-25.05988 32.433594,-25.05988 z" />
    <path
       id="path3-3"
       style="fill:#000000;stroke-width:1.17006"
       d="m 253.16373,125.25471 a 40.971359,25.062159 0 0 0 -40.9707,25.06255 40.971359,25.062159 0 0 0 40.9707,25.06256 40.971359,25.062159 0 0 0 40.97266,-25.06256 40.971359,25.062159 0 0 0 -40.97266,-25.06255 z m 0,4.48949 c 15.84577,0 29.11297,6.50008 32.4336,15.89105 2.2489,6.36003 -0.0936,12.51199 -6.75,17.73337 -6.93856,5.44277 -21.60159,8.67848 -32.34766,7.13666 -12.89133,-1.8496 -23.06311,-8.04728 -25.76953,-15.7012 -4.64166,-13.1269 10.80191,-25.05988 32.43359,-25.05988 z" />
  </g>
</svg>
